<?xml version="1.0" standalone="no"?>
<!DOCTYPE svg PUBLIC "-//W3C//DTD SVG 20010904//EN"
 "http://www.w3.org/TR/2001/REC-SVG-20010904/DTD/svg10.dtd">
<svg version="1.0" xmlns="http://www.w3.org/2000/svg"
 width="500.000000pt" height="500.000000pt" viewBox="0 0 500.000000 500.000000"
 preserveAspectRatio="xMidYMid meet">
<metadata>
Created by potrace 1.14, written by Peter Selinger 2001-2017
</metadata>
<g transform="translate(0.000000,500.000000) scale(0.100000,-0.100000)"
fill="#000000" stroke="none">
<path d="M0 2500 l0 -2500 2500 0 2500 0 0 2500 0 2500 -2500 0 -2500 0 0
-2500z m2211 550 c253 -547 463 -1000 465 -1007 3 -6 -2 -10 -12 -10 -13 2
-36 -30 -84 -119 -36 -66 -76 -137 -88 -157 l-24 -38 -131 3 -131 3 -62 134
c-35 73 -67 138 -71 142 -5 5 -210 8 -458 7 l-449 -3 -65 -142 -66 -143 -47 0
-48 0 55 109 c35 71 61 112 75 116 25 8 25 20 1 44 -43 43 -82 1 -162 -174
l-44 -95 -202 0 -203 0 0 46 c0 39 69 195 491 1112 271 587 503 1091 515 1120
l24 53 130 -3 131 -3 460 -995z m2127 123 l-3 -848 -24 -70 c-91 -273 -291
-452 -596 -531 -82 -21 -125 -26 -236 -28 l-136 -1 -26 30 -27 30 -17 -22
c-15 -19 -24 -22 -56 -16 -49 8 -53 16 -32 64 l18 39 121 0 c76 0 143 -6 181
-16 33 -8 70 -18 83 -21 34 -8 28 24 -10 47 -47 29 -155 50 -252 50 -53 0 -86
4 -86 10 0 6 9 28 20 50 24 47 25 73 5 90 -25 20 -40 5 -74 -73 l-32 -74 -105
-7 c-58 -4 -119 -9 -135 -13 -28 -5 -38 1 -113 78 -65 66 -92 103 -128 176
-71 140 -83 209 -83 458 l0 210 278 3 277 2 0 -173 c0 -193 9 -237 60 -299 17
-20 56 -49 88 -65 51 -25 68 -28 157 -28 92 0 104 2 154 30 62 34 93 71 115
138 14 41 16 118 16 577 l0 530 -170 0 -170 0 0 260 0 260 470 0 471 0 -3
-847z m-1598 -1270 c17 -43 36 -86 41 -95 5 -10 9 -34 9 -53 l0 -35 -110 0
c-60 0 -110 2 -110 5 0 11 125 255 131 255 3 0 21 -35 39 -77z m375 -115 c-15
-36 -17 -36 -90 -5 l-50 22 35 6 c19 4 54 7 77 8 l42 1 -14 -32z"/>
<path d="M1490 2819 c-69 -161 -126 -295 -128 -300 -2 -5 112 -9 257 -9 144 0
261 2 261 5 0 8 -252 580 -259 587 -4 4 -63 -123 -131 -283z"/>
</g>
</svg>
